HIERARCHY
ROOT Hips
{
	OFFSET 20.972166 61.802994 -19.900904
	CHANNELS 6 Xposition Yposition Zposition Xrotation Yrotation Zrotation
	JOINT Chest
	{
		OFFSET 10.760048 1.390343 8.273005
		CHANNELS 3 Xrotation Yrotation Zrotation
		JOINT Chest2
		{
			OFFSET 14.102182 5.162712 15.282066
			CHANNELS 3 Xrotation Yrotation Zrotation
			JOINT Chest3
			{
				OFFSET 10.996197 5.047485 8.742229
				CHANNELS 3 Xrotation Yrotation Zrotation
				JOINT Neck
				{
					OFFSET 11.472057 7.580933 10.466018
					CHANNELS 3 Xrotation Yrotation Zrotation
					JOINT Head
					{
						OFFSET 7.093262 6.544128 4.085070
						CHANNELS 3 Xrotation Yrotation Zrotation
						End Site
						{
							OFFSET 7.122803 6.553040 4.018826
						}
					}
				}
				JOINT LeftCollar
				{
					OFFSET 10.104176 1.254761 9.906346
					CHANNELS 3 Xrotation Yrotation Zrotation
					JOINT LeftUpArm
					{
						OFFSET 12.499870 -11.289635 -4.979637
						CHANNELS 3 Xrotation Yrotation Zrotation
						JOINT LeftLowArm
						{
							OFFSET 0.156853 -33.758709 -0.230396
							CHANNELS 3 Xrotation Yrotation Zrotation
							JOINT LeftHand
							{
								OFFSET 2.816200 -29.101255 6.792112
								CHANNELS 3 Xrotation Yrotation Zrotation
								End Site
								{
									OFFSET 0.615509 -6.360250 1.484451
								}
							}
						}
					}
				}
				JOINT RightCollar
				{
					OFFSET 4.987492 7.889015 10.709674
					CHANNELS 3 Xrotation Yrotation Zrotation
					JOINT RightUpArm
					{
						OFFSET -9.702259 13.603882 -5.412691
						CHANNELS 3 Xrotation Yrotation Zrotation
						JOINT RightLowArm
						{
							OFFSET -23.764875 23.736443 3.398090
							CHANNELS 3 Xrotation Yrotation Zrotation
							JOINT RightHand
							{
								OFFSET -9.677763 27.035416 8.739662
								CHANNELS 3 Xrotation Yrotation Zrotation
								End Site
								{
									OFFSET -2.115150 5.908875 1.910130
								}
							}
						}
					}
				}
			}
		}
	}
	JOINT LeftUpLeg
	{
		OFFSET 2.196663 -9.699886 -1.227228
		CHANNELS 3 Xrotation Yrotation Zrotation
		JOINT LeftLowLeg
		{
			OFFSET -8.523895 -46.477348 3.344923
			CHANNELS 3 Xrotation Yrotation Zrotation
			JOINT LeftFoot
			{
				OFFSET -10.422931 3.194193 -43.378883
				CHANNELS 3 Xrotation Yrotation Zrotation
				JOINT LeftToe
				{
					OFFSET -14.240095 -18.169844 -5.161057
					CHANNELS 3 Xrotation Yrotation Zrotation
					End Site
					{
						OFFSET -2.219662 -23.203794 4.026897
					}
				}
			}
		}
	}
	JOINT RightUpLeg
	{
		OFFSET -2.196819 9.699867 1.227108
		CHANNELS 3 Xrotation Yrotation Zrotation
		JOINT RightLowLeg
		{
			OFFSET -27.857208 38.296417 -1.171585
			CHANNELS 3 Xrotation Yrotation Zrotation
			JOINT RightFoot
			{
				OFFSET -13.421972 42.398109 -4.778107
				CHANNELS 3 Xrotation Yrotation Zrotation
				JOINT RightToe
				{
					OFFSET -1.242334 13.520523 19.370295
					CHANNELS 3 Xrotation Yrotation Zrotation
					End Site
					{
						OFFSET 1.845154 -1.559280 23.531258
					}
				}
			}
		}
	}
}
MOTION
Frames: 5
Frame Time: 0.033333
-3.877331 105.295380 -1.111654 -30.490214 -8.283916 75.542350 1.878735 10.509737 -4.710841 6.905355 -3.059314 -0.324197 -4.357844 -3.414136 -17.092499 17.471330 -5.800375 -0.316462 0.000002 0.000001 -0.000000 23.203621 5.058242 -17.155641 13.821503 -13.720535 -20.602057 -8.304176 -20.804582 -13.157950 0.000000 0.000002 -0.000000 -2.044154 -15.648213 8.933645 17.803419 -18.458827 60.304416 25.554779 -9.227660 36.958505 0.000000 0.000000 0.000001 31.743550 -27.941966 -49.257736 -76.207050 -3.086900 39.332355 -42.006374 -23.981487 -41.702454 -0.000001 -0.000004 0.000000 -21.646649 -33.941986 45.032742 -7.143197 4.477984 13.739692 21.673445 -28.404554 18.452603 -0.000000 -0.000001 -0.000001 
-3.884495 105.292847 -1.107922 -30.349645 -8.413323 75.560771 2.009146 10.353325 -4.824029 6.715172 -2.715985 -0.313439 -4.341806 -3.464321 -17.208670 17.750241 -6.217046 -0.284108 0.000002 0.000000 -0.000004 23.006813 4.982865 -16.993871 14.049277 -13.665407 -20.577265 -8.624398 -20.850880 -13.227146 0.000002 -0.000002 -0.000001 -2.151113 -15.610059 8.759555 17.699185 -18.805077 60.407422 25.760431 -9.122734 37.154918 0.000001 -0.000002 0.000002 31.746337 -27.978130 -49.300456 -76.410371 -2.928120 39.489094 -41.949434 -24.088839 -41.649244 -0.000001 -0.000004 0.000000 -21.648308 -33.911251 44.959724 -7.128874 4.665260 13.797414 21.510706 -28.448047 18.442986 -0.000001 0.000000 0.000000 
-3.895016 105.291519 -1.102980 -29.498781 -8.348558 75.555177 1.701370 11.334763 -4.652689 6.593383 -2.522011 -0.298483 -4.151473 -4.179020 -17.325077 17.467066 -5.643107 -0.401045 0.000001 -0.000000 -0.000001 22.963157 4.829092 -16.848501 13.636329 -13.871219 -20.914599 -8.642138 -21.014960 -13.030174 -0.000000 -0.000004 0.000001 -2.077867 -15.655878 8.658150 18.004811 -18.202063 60.550556 25.845497 -9.263719 37.156943 0.000003 0.000000 0.000001 31.250738 -27.157602 -49.678227 -76.263078 -2.996716 39.446692 -41.890527 -24.050686 -41.585211 -0.000001 -0.000004 0.000001 -21.519421 -33.284571 45.573256 -7.055523 4.711837 13.787542 21.480221 -28.317590 18.258906 -0.000001 -0.000001 -0.000001 
-3.916492 105.290497 -1.097666 -29.716582 -8.431826 75.478481 1.898384 10.779769 -4.781322 6.387651 -2.050010 -0.289823 -4.017357 -4.402896 -17.251198 17.556824 -5.794769 -0.346722 0.000002 -0.000001 -0.000000 22.952936 4.994984 -16.696718 13.400635 -13.982871 -21.050619 -8.600146 -21.192474 -13.113197 0.000002 -0.000004 0.000000 -1.638792 -15.431983 8.857052 18.093031 -17.969485 60.770659 26.006502 -9.219975 36.911220 -0.000001 0.000000 0.000003 31.142207 -27.134112 -49.649530 -76.183698 -2.963714 39.476376 -41.643124 -24.177150 -41.372170 -0.000001 -0.000002 -0.000000 -21.487377 -33.399598 45.576971 -7.081197 4.755742 13.938954 21.669065 -28.092896 18.132733 -0.000001 -0.000001 0.000000 
-3.947090 105.291321 -1.093657 -30.339263 -8.559643 75.425274 2.278269 9.575957 -5.007192 6.125232 -1.222694 -0.326977 -3.906233 -4.598784 -17.098031 17.664432 -5.966872 -0.231820 -0.000000 -0.000001 -0.000000 22.701788 4.635465 -16.703825 13.615157 -14.051528 -21.212288 -8.347885 -21.276507 -12.521864 0.000001 -0.000002 0.000001 -1.026872 -15.270348 9.189980 18.318219 -17.591651 60.904483 26.011577 -9.333529 36.721180 -0.000001 0.000003 0.000004 31.426202 -27.694356 -49.332903 -76.470593 -2.866561 39.452074 -41.382217 -24.093974 -41.161186 0.000000 -0.000000 -0.000000 -21.475592 -33.735821 45.389220 -7.165620 4.528918 13.851177 21.824317 -28.110286 18.228395 -0.000001 0.000000 -0.000001 
